<svg xmlns="http://www.w3.org/2000/svg" style="isolation:isolate" viewBox="26.754 0 16.991 14.113" width="22.655" height="18.817"><defs/><path d="M27.709 8.389l-.027-.006h11.37l-3.574 3.582a.93.93 0 00-.271.66.93.93 0 00.271.66l.556.556a.922.922 0 00.656.272.922.922 0 00.657-.271l6.127-6.127a.92.92 0 00.271-.658.92.92 0 00-.271-.659L37.347.271A.922.922 0 0036.69 0a.921.921 0 00-.656.271l-.556.556a.922.922 0 00-.271.657c0 .248.096.469.271.644l3.614 3.602H27.696a.962.962 0 00-.942.953v.787c0 .512.443.919.955.919z"/></svg>