<?xml version="1.0" encoding="UTF-8" standalone="no"?><!-- Generator: Gravit.io --><svg xmlns="http://www.w3.org/2000/svg" xmlns:xlink="http://www.w3.org/1999/xlink" style="isolation:isolate" viewBox="630.318 257 19.036 21.754" width="19.036pt" height="21.754pt"><g><path d=" M 646.634 267.877 C 646.634 264.123 643.591 261.079 639.836 261.079 C 636.081 261.079 633.038 264.123 633.038 267.877 C 633.038 271.632 636.081 274.676 639.836 274.676 C 643.591 274.676 646.634 271.632 646.634 267.877 Z " fill="rgb(255,204,126)"/><path d=" M 638.93 277.848 L 638.93 276.297 C 638.93 275.796 639.335 275.391 639.836 275.391 C 640.336 275.391 640.742 275.796 640.742 276.297 L 640.742 277.848 C 640.742 278.349 640.336 278.754 639.836 278.754 C 639.335 278.754 638.93 278.349 638.93 277.848 Z " fill="rgb(255,204,126)"/><path d=" M 631.634 273.562 C 631.187 273.786 630.642 273.608 630.415 273.161 C 630.19 272.714 630.369 272.168 630.816 271.943 L 632.13 271.278 C 632.262 271.212 632.401 271.181 632.538 271.181 C 632.869 271.181 633.188 271.363 633.348 271.679 C 633.574 272.126 633.396 272.671 632.949 272.897 L 631.634 273.562 Z " fill="rgb(255,204,126)"/><path d=" M 632.13 264.476 L 630.816 263.812 C 630.369 263.586 630.191 263.04 630.416 262.594 C 630.576 262.277 630.895 262.096 631.227 262.096 C 631.363 262.096 631.504 262.127 631.634 262.193 L 632.949 262.857 C 633.396 263.083 633.574 263.629 633.348 264.076 C 633.122 264.523 632.576 264.703 632.13 264.476 Z " fill="rgb(255,204,126)"/><path d=" M 639.836 260.364 C 639.335 260.364 638.93 259.959 638.93 259.457 L 638.93 257.906 C 638.93 257.405 639.335 257 639.836 257 C 640.336 257 640.742 257.405 640.742 257.906 L 640.742 259.457 C 640.742 259.959 640.336 260.364 639.836 260.364 L 639.836 260.364 Z " fill="rgb(255,204,126)"/><path d=" M 648.856 263.812 L 647.542 264.476 C 647.096 264.702 646.55 264.523 646.323 264.077 C 646.098 263.63 646.276 263.084 646.723 262.858 L 648.037 262.194 C 648.169 262.128 648.308 262.097 648.445 262.097 C 648.776 262.097 649.095 262.278 649.256 262.594 C 649.482 263.04 649.303 263.586 648.856 263.812 L 648.856 263.812 Z " fill="rgb(255,204,126)"/><path d=" M 648.038 273.562 L 646.724 272.897 C 646.277 272.671 646.098 272.126 646.324 271.679 C 646.484 271.363 646.803 271.181 647.135 271.181 C 647.271 271.181 647.412 271.212 647.542 271.278 L 648.857 271.943 C 649.304 272.168 649.482 272.714 649.257 273.161 C 649.03 273.608 648.484 273.788 648.038 273.562 L 648.038 273.562 Z " fill="rgb(255,204,126)"/></g></svg>