<?xml version="1.0" encoding="UTF-8" standalone="no"?><!-- Generator: Gravit.io --><svg xmlns="http://www.w3.org/2000/svg" xmlns:xlink="http://www.w3.org/1999/xlink" style="isolation:isolate" viewBox="630.995 257 17.682 19" width="17.682pt" height="19pt"><path d=" M 648.536 270.748 C 648.366 270.539 648.081 270.462 647.83 270.552 C 647.127 270.804 646.365 270.933 645.562 270.933 C 641.72 270.933 638.595 267.807 638.595 263.967 C 638.595 261.655 639.736 259.503 641.648 258.208 C 641.864 258.061 641.968 257.797 641.91 257.542 C 641.852 257.288 641.643 257.095 641.383 257.057 C 641.086 257.014 640.791 257 640.495 257 C 635.256 257 630.995 261.261 630.995 266.5 C 630.995 271.739 635.256 276 640.495 276 C 643.82 276 646.845 274.31 648.584 271.481 C 648.724 271.251 648.704 270.959 648.536 270.748 Z " fill="rgb(249,222,182)"/></svg>